<?xml version="1.0" standalone="no"?>
<!DOCTYPE svg PUBLIC "-//W3C//DTD SVG 20010904//EN"
 "http://www.w3.org/TR/2001/REC-SVG-20010904/DTD/svg10.dtd">
<svg version="1.0" xmlns="http://www.w3.org/2000/svg"
 width="412.000000pt" height="412.000000pt" viewBox="0 0 412.000000 412.000000"
 preserveAspectRatio="xMidYMid meet">

<g transform="translate(0.000000,412.000000) scale(0.100000,-0.100000)"
fill="#000000" stroke="none">
<path d="M4082 3648 c-7 -7 -12 -20 -12 -29 0 -9 -12 -40 -26 -68 -26 -48 -26
-52 -10 -76 9 -14 14 -34 11 -44 -7 -24 19 -51 51 -51 l24 0 0 140 c0 143 -5
161 -38 128z"/>
<path d="M2807 3349 c-11 -6 -36 -12 -57 -13 -34 -2 -54 -9 -132 -47 -10 -5
-27 -9 -39 -9 -46 0 -112 -60 -124 -114 -16 -74 -16 -93 0 -106 14 -12 16 -12
15 1 -5 31 0 42 13 31 10 -8 20 -3 40 23 23 29 34 34 65 34 50 -1 92 -20 92
-41 0 -9 5 -20 11 -24 8 -4 7 -9 -2 -14 -9 -6 -9 -12 4 -25 10 -9 17 -23 17
-31 0 -9 11 -14 29 -14 22 0 32 -6 37 -22 18 -57 -8 -134 -56 -168 l-31 -22
-6 21 c-8 31 -18 26 -48 -26 -40 -69 -92 -130 -122 -145 -36 -18 -38 -32 -8
-46 27 -12 113 -17 102 -6 -8 9 11 44 24 44 6 0 17 -7 25 -15 17 -16 34 -20
34 -7 0 5 13 29 30 53 16 24 30 57 30 74 0 25 2 27 13 15 7 -8 21 -42 32 -75
25 -80 58 -145 85 -170 12 -11 24 -19 26 -17 2 1 11 2 20 2 21 0 -82 -112
-149 -162 -28 -21 -54 -38 -58 -38 -3 0 -10 23 -13 52 -4 28 -14 60 -22 72
l-14 20 0 -22 c0 -13 -6 -22 -15 -22 -8 0 -15 -4 -15 -10 0 -5 -11 -17 -25
-26 -19 -12 -36 -14 -76 -9 l-51 7 6 33 c6 28 2 36 -28 63 -32 27 -43 31 -132
37 -117 9 -147 -1 -152 -53 -3 -27 -8 -34 -33 -39 -16 -3 -29 -8 -29 -12 0 -3
-11 -18 -25 -33 -31 -34 -21 -42 60 -45 150 -6 210 -14 223 -31 18 -24 15 -29
-25 -43 -54 -17 -59 -21 -35 -30 28 -11 28 -27 0 -34 -28 -7 -263 -17 -341
-15 -32 1 -65 -4 -73 -10 -8 -8 -28 -10 -51 -6 -56 9 -86 8 -113 -5 -3 -1 -77
-4 -165 -5 -88 -2 -230 -6 -315 -8 -85 -3 -237 -7 -338 -8 -172 -3 -185 -2
-198 16 -12 17 -12 22 6 41 20 21 20 21 -2 42 -23 24 -19 50 9 60 10 3 34 13
53 21 l35 14 -55 20 c-48 17 -66 19 -150 11 -53 -5 -117 -5 -145 0 -27 4 -123
9 -213 10 l-164 2 6 -27 c10 -49 -44 -77 -79 -42 -9 9 -13 24 -10 33 11 27 10
33 -2 38 -10 4 -13 -141 -13 -682 l0 -688 48 7 c26 3 146 17 267 31 121 13
297 34 390 45 94 12 200 24 238 27 44 4 67 10 67 18 0 7 7 18 15 25 19 16 19
16 -52 46 l-58 25 45 -5 c138 -18 148 -18 188 3 22 11 61 26 88 33 l49 13 -55
6 c-30 4 -84 10 -120 14 -86 9 -100 13 -79 25 9 5 103 5 225 -1 218 -10 232
-8 373 32 35 11 71 19 81 19 11 0 21 4 24 9 5 7 -78 15 -134 12 -8 0 -98 -1
-200 -1 -206 0 -325 6 -415 20 -33 5 -95 14 -138 21 -170 26 -56 36 153 13 25
-2 241 -6 480 -8 l435 -3 49 24 c52 25 80 23 96 -7 13 -24 -12 -40 -62 -40
-49 -1 -107 -15 -263 -66 -139 -45 -140 -46 -180 -97 -22 -29 -46 -64 -54 -79
-17 -34 -131 -157 -131 -142 0 7 18 36 40 65 23 30 43 65 47 78 3 14 16 40 29
58 34 51 25 62 -44 51 -31 -5 -63 -15 -72 -22 -8 -8 -40 -26 -70 -42 -30 -15
-62 -33 -70 -39 -8 -6 -31 -18 -50 -26 -41 -16 -87 -55 -95 -79 -4 -14 -22
-19 -88 -24 -91 -8 -227 -24 -270 -32 -16 -3 -27 -12 -27 -22 0 -14 -1 -14
-13 1 -10 15 -20 16 -72 7 -33 -5 -157 -21 -275 -35 -118 -13 -242 -29 -275
-35 -33 -5 -61 -10 -62 -10 -2 0 -3 -106 -3 -236 l0 -237 43 53 c36 45 81 80
102 80 4 0 5 -17 4 -38 -2 -20 1 -54 5 -75 5 -24 4 -47 -2 -62 -6 -13 -9 -25
-6 -28 8 -8 54 5 48 14 -12 20 28 20 79 1 29 -11 80 -23 113 -26 32 -3 100
-10 151 -16 61 -6 101 -6 118 0 15 6 43 10 64 10 21 0 53 5 71 11 24 9 34 9
39 0 5 -7 22 -9 47 -6 38 5 39 5 14 -9 -14 -9 -34 -15 -45 -16 -12 0 -25 -4
-30 -8 -6 -5 -44 -15 -85 -22 -41 -7 -91 -16 -110 -21 -57 -14 -299 -10 -396
6 -89 16 -152 44 -188 84 -11 12 -23 21 -28 21 -4 0 -8 -83 -8 -185 l0 -185
948 0 c522 0 952 3 955 6 9 9 -11 44 -26 44 -7 0 -29 -9 -48 -19 -36 -20 -37
-20 -110 4 -41 12 -137 42 -214 65 -242 72 -421 151 -502 221 -35 30 -32 37
22 57 57 21 115 25 133 9 24 -21 165 -81 247 -106 201 -61 364 -104 500 -132
33 -7 71 -19 85 -26 14 -7 33 -13 43 -13 29 0 133 57 158 87 33 39 87 76 102
70 17 -6 21 -67 4 -67 -7 0 -19 -10 -27 -21 -8 -12 -36 -47 -62 -77 -28 -32
-48 -65 -48 -79 l0 -23 408 0 407 0 21 33 c12 17 24 43 28 58 15 69 143 140
175 98 19 -26 27 -24 41 10 11 28 60 82 60 67 0 -4 -16 -32 -35 -62 -37 -57
-41 -70 -26 -76 13 -4 21 -51 14 -78 -3 -11 -17 -27 -32 -35 -23 -13 7 -14
266 -15 280 0 294 1 313 20 11 11 27 20 35 20 21 0 19 13 -5 35 -11 10 -20 27
-20 38 0 15 5 18 23 13 12 -3 32 -6 45 -6 17 0 22 -6 22 -25 0 -14 -4 -25 -10
-25 -14 0 -31 -37 -24 -54 5 -13 27 -16 130 -16 l124 0 0 260 0 260 -24 -11
c-45 -21 -114 17 -76 41 11 7 11 11 1 24 -10 11 -10 27 -3 60 6 28 6 64 1 93
-6 31 -5 59 2 81 6 18 8 45 4 60 -4 15 -8 82 -10 150 -1 73 -7 128 -14 135 -8
8 -6 16 6 29 13 14 17 43 20 128 3 131 17 225 39 268 21 43 31 33 27 -25 -12
-172 -16 -253 -15 -288 0 -22 1 -78 1 -125 -1 -190 9 -540 16 -567 3 -13 10
-23 15 -23 6 0 10 202 10 565 0 311 -3 565 -6 565 -3 0 -47 -20 -98 -44 -51
-25 -106 -48 -122 -52 -16 -4 -38 -11 -49 -17 -11 -6 -34 -11 -52 -11 -24 -1
-35 5 -42 22 -10 20 -7 24 29 38 40 16 41 21 17 72 -8 18 -7 26 6 39 15 15 17
13 23 -26 4 -24 13 -45 21 -48 8 -3 38 4 67 16 28 11 63 21 78 21 15 0 49 5
77 12 l51 11 0 464 0 464 -22 -7 c-13 -3 -27 -10 -33 -14 -5 -4 -23 -10 -40
-14 -16 -4 -45 -19 -63 -33 -26 -19 -40 -24 -66 -19 -26 5 -38 1 -66 -24 -38
-34 -40 -34 -75 -18 -36 16 -108 -8 -102 -34 4 -13 -1 -18 -16 -18 -17 0 -19
-2 -8 -9 25 -16 -56 -43 -111 -37 -32 4 -62 0 -88 -10 -22 -9 -50 -14 -61 -11
-16 4 -19 2 -15 -10 4 -8 -10 -1 -29 16 -54 47 -138 85 -259 115 -44 11 -52
17 -67 52 -20 44 -24 135 -8 165 5 11 39 56 74 99 35 44 72 94 81 111 21 41
27 98 13 115 -6 7 -8 18 -5 23 4 5 -2 14 -11 20 -12 7 -13 11 -5 11 8 0 22 10
32 23 18 22 18 22 -11 27 -16 3 -28 10 -27 15 2 6 6 9 9 8 3 -1 6 4 6 11 0 8
-8 11 -20 8 -15 -4 -18 -2 -12 8 6 10 4 12 -10 6 -15 -5 -16 -4 -5 9 11 13 9
15 -12 15 -13 0 -29 -5 -35 -11 -8 -8 -13 -5 -18 12 -10 31 -20 39 -90 75 -72
38 -114 47 -138 33z m578 -1000 c11 -17 -1 -21 -15 -4 -8 9 -8 15 -2 15 6 0
14 -5 17 -11z m-2000 -268 c443 3 670 -1 702 -10 17 -5 36 -5 44 0 18 11 72
11 84 0 6 -5 18 -11 27 -13 13 -2 15 -7 8 -18 -13 -21 -225 -25 -257 -4 -31
19 -43 17 -76 -12 l-29 -25 27 -21 c42 -33 16 -48 -91 -54 -49 -3 -111 -7
-139 -9 -27 -2 -138 -6 -245 -8 -202 -3 -256 -12 -211 -37 12 -6 37 -11 54
-11 444 4 630 2 637 -5 6 -6 4 -19 -3 -34 -14 -27 -30 -29 -108 -13 -36 8 -53
7 -73 -4 -15 -8 -42 -13 -59 -12 -81 5 -143 -9 -123 -28 4 -4 45 -8 90 -9 45
-1 91 -4 102 -8 11 -3 47 1 79 9 48 13 64 14 82 4 13 -7 23 -15 23 -18 0 -14
-60 -31 -87 -25 -38 10 -75 9 -99 -1 -10 -5 -53 -9 -94 -10 -41 -1 -85 -6 -96
-13 -15 -8 -42 -9 -86 -4 -36 5 -75 5 -89 2 -28 -7 -360 -5 -506 3 -57 4 -111
11 -122 17 -11 5 -28 10 -38 10 -10 0 -35 5 -57 11 -36 10 -38 12 -22 27 10
10 33 17 56 17 45 0 55 18 13 23 -37 5 -53 19 -50 44 5 31 26 37 117 32 81 -5
125 5 106 23 -4 4 -53 11 -107 14 -74 4 -105 10 -117 22 -15 16 -15 18 3 32
11 8 26 15 33 15 7 0 12 14 12 34 0 18 7 39 14 46 21 16 129 25 271 23 66 -2
246 -2 400 -2z m946 -27 c6 -19 4 -21 -24 -20 -25 1 -33 6 -35 24 -3 20 0 23
24 20 16 -2 30 -11 35 -24z m1457 -37 c3 -25 1 -26 -35 -23 -21 2 -37 6 -35
10 1 3 2 10 2 14 0 11 41 32 55 28 6 -1 11 -14 13 -29z m202 21 c0 -7 -15 -20
-33 -28 -29 -13 -32 -19 -32 -58 0 -45 -2 -46 -60 -54 -17 -3 -20 3 -20 32 0
26 5 37 22 45 12 5 27 19 34 31 18 35 89 60 89 32z m-1910 -73 c0 -18 -51 -28
-81 -16 -17 7 -19 10 -6 10 9 1 17 5 17 10 0 11 38 19 58 13 6 -2 12 -10 12
-17z m163 11 c9 -7 17 -15 17 -17 0 -2 -27 -2 -60 -1 -33 2 -60 8 -60 12 0 22
76 26 103 6z m1447 -11 c0 -9 -6 -12 -16 -8 -13 5 -13 7 -2 14 17 11 18 11 18
-6z m-3446 -27 c20 -74 31 -147 22 -145 -6 1 -13 -14 -16 -33 l-5 -35 -22 29
c-18 22 -22 36 -17 66 4 23 2 40 -5 44 -15 9 -14 41 1 66 14 22 37 26 42 8z
m3462 -8 c0 -15 -4 -17 -21 -8 -19 11 -19 10 -5 -8 14 -19 14 -19 -8 0 -23 20
-18 31 15 33 12 1 19 -5 19 -17z m-3305 -74 c9 -1 29 -12 45 -23 23 -17 27
-24 17 -34 -10 -10 -16 -10 -24 -2 -9 9 -18 8 -37 0 -21 -10 -27 -9 -36 7 -6
11 -18 27 -28 37 -20 22 -11 32 22 24 14 -3 32 -7 41 -9z m1669 -2 c11 -12 11
-18 -2 -30 -14 -14 -18 -14 -42 1 -14 10 -26 24 -26 31 0 19 54 18 70 -2z
m176 -4 c10 0 12 -4 7 -12 -4 -7 -8 -29 -8 -48 0 -29 -4 -36 -22 -38 -28 -4
-30 14 -3 23 20 6 28 25 11 25 -5 0 -16 7 -25 15 -18 18 -10 49 11 41 8 -3 21
-6 29 -6z m329 2 c-5 -4 -10 -27 -11 -51 -1 -29 -7 -48 -17 -56 -20 -14 -23
-36 -4 -32 16 3 11 -104 -6 -115 -16 -10 -39 22 -33 45 4 18 -9 24 -19 7 -10
-16 -25 -1 -24 23 l1 22 6 -22 c6 -20 9 -20 27 -7 16 12 21 29 24 97 3 83 10
97 46 97 11 0 16 -4 10 -8z m96 -9 c0 -11 3 -13 6 -5 2 6 12 12 21 12 11 0 13
-3 5 -8 -6 -4 -15 -34 -20 -67 l-9 -60 -9 70 -9 70 -6 -50 c-3 -27 -2 -58 2
-67 4 -9 8 -46 8 -82 0 -36 4 -66 8 -66 5 0 14 36 21 80 8 45 16 78 19 76 5
-5 -17 -154 -25 -168 -2 -5 -17 -1 -34 7 -34 18 -34 18 -17 168 8 77 15 107
25 107 7 0 13 -8 14 -17z m-2513 -13 c-14 -22 -24 -25 -32 -11 -3 5 -15 7 -26
4 -14 -4 -20 0 -20 11 0 12 10 16 45 16 43 0 44 -1 33 -20z m2469 -22 c-3 -8
-6 -5 -6 6 -1 11 2 17 5 13 3 -3 4 -12 1 -19z m-121 -21 c1 -24 1 -24 -3 -3
-2 14 -12 27 -21 30 -12 3 -11 4 3 3 14 -2 20 -10 21 -30z m-435 -57 c-9 -5
-22 -5 -34 1 -18 10 -18 11 0 24 15 12 20 12 33 -1 13 -13 13 -16 1 -24z m852
-12 c31 -22 34 -45 11 -111 -16 -47 -37 -60 -61 -36 -17 17 -29 4 -42 -46 -12
-47 -19 -52 -51 -35 -17 9 -17 13 11 87 16 43 36 102 44 131 17 58 19 58 88
10z m-467 -135 c7 -2 19 3 28 12 9 9 16 12 16 6 0 -6 -9 -15 -21 -21 -33 -18
-49 4 -47 64 l1 51 6 -54 c3 -30 11 -56 17 -58z m-1406 53 c85 -1 166 -5 180
-9 14 -4 43 -4 65 0 22 5 59 5 87 -1 34 -7 61 -7 91 1 32 9 54 8 89 -1 26 -6
50 -14 53 -18 14 -14 -90 -22 -350 -29 -161 -4 -418 11 -480 27 -33 8 -72 18
-88 21 -61 12 -29 18 81 14 65 -2 187 -4 272 -5z m669 -15 c11 -7 10 -11 -7
-20 -21 -11 -52 -6 -52 9 0 17 38 24 59 11z m2301 -52 c12 -8 8 -15 -25 -42
-22 -18 -54 -46 -72 -63 -18 -18 -40 -34 -48 -38 -8 -3 -15 -12 -15 -21 0 -9
-9 -15 -21 -15 -15 0 -19 4 -15 15 3 8 8 21 11 28 4 8 -6 19 -22 26 -27 12
-27 13 -8 27 29 22 45 17 52 -16 5 -30 17 -38 28 -21 3 5 1 12 -5 16 -5 3 -10
17 -10 30 0 17 8 26 30 34 17 6 43 19 57 31 29 22 41 24 63 9z m-2952 -55 c40
-11 18 -29 -34 -27 -27 1 -75 2 -106 2 -48 0 -57 3 -52 16 5 12 24 15 88 15
44 0 91 -3 104 -6z m162 -18 c0 -23 -18 -29 -68 -21 -43 6 -45 8 -27 21 26 19
95 19 95 0z m320 5 c0 -5 -7 -14 -16 -22 -13 -10 -17 -10 -24 1 -5 8 -6 18 -4
22 7 11 44 10 44 -1z m-175 -11 c4 -6 -7 -10 -25 -10 -18 0 -29 4 -25 10 3 6
15 10 25 10 10 0 22 -4 25 -10z m2500 -147 c49 -6 54 -10 30 -27 -16 -12 -23
-12 -38 -1 -11 8 -25 11 -32 8 -8 -2 -19 5 -25 18 -11 20 -10 21 6 15 11 -4
37 -10 59 -13z m-2905 -53 c8 -5 11 -10 5 -10 -5 0 -17 5 -25 10 -8 5 -10 10
-5 10 6 0 17 -5 25 -10z m1410 -21 c0 -15 -4 -19 -19 -14 -11 3 -22 1 -26 -5
-3 -5 -17 -10 -31 -10 -14 0 -22 4 -19 10 3 6 16 10 28 10 12 0 31 7 41 15 25
19 26 19 26 -6z m-222 -108 c19 -12 -11 -18 -191 -41 -245 -30 -265 -32 -277
-25 -16 10 26 30 80 39 25 4 79 13 120 20 86 15 249 20 268 7z m529 -103 c-3
-7 -5 -2 -5 12 0 14 2 19 5 13 2 -7 2 -19 0 -25z m-312 0 c2 -7 6 -70 10 -140
6 -126 6 -128 -15 -128 -11 0 -20 6 -19 13 3 26 -1 47 -11 47 -5 0 -10 -6 -10
-14 0 -8 -8 -12 -22 -9 -21 4 -23 9 -20 54 3 34 8 49 18 49 8 0 14 -7 14 -16
0 -8 4 -13 9 -10 5 4 11 0 14 -6 8 -24 17 -1 11 29 -5 24 -13 32 -34 36 -30 7
-49 49 -31 71 6 7 8 16 4 19 -3 4 3 7 15 7 11 0 23 -6 25 -12 3 -8 6 -6 6 5 1
19 30 23 36 5z m-799 -107 c-7 -10 -66 -21 -66 -12 0 4 -21 5 -47 4 -45 -1
-46 -1 -13 6 49 12 132 13 126 2z m-568 -91 c2 -25 -3 -32 -37 -49 -46 -24
-66 -15 -80 36 -9 31 -8 32 22 36 86 11 93 9 95 -23z m247 5 c35 -34 31 -62
-14 -106 -150 -142 -676 -248 -969 -194 -102 18 -153 43 -171 83 -16 34 -13
54 12 85 18 23 35 30 102 42 44 7 82 12 84 9 2 -2 -1 -16 -8 -30 -10 -22 -9
-30 5 -45 20 -23 47 -24 67 -5 13 13 19 12 48 -10 23 -16 46 -24 75 -24 24 0
46 -4 49 -10 16 -26 133 5 143 37 6 20 -48 35 -103 29 -36 -4 -64 0 -99 13
-45 17 -75 45 -62 58 8 8 135 32 166 32 23 0 23 -1 5 -9 -18 -7 -17 -8 10 -15
17 -4 36 -12 42 -17 8 -7 24 -6 44 1 18 6 52 11 75 11 57 0 57 -17 2 -73 l-41
-42 80 -3 c68 -2 89 1 137 22 31 14 73 28 94 32 85 15 116 49 106 114 l-7 40
52 0 c42 0 57 -5 76 -25z m1087 -90 c17 -15 23 -25 15 -28 -6 -2 -8 -8 -4 -13
5 -5 15 -1 23 10 12 17 14 17 20 3 9 -24 -4 -50 -21 -43 -8 3 -17 1 -20 -4 -4
-6 -14 -10 -24 -10 -10 0 -26 -9 -35 -19 -20 -22 -36 -19 -54 9 -9 16 -10 26
-1 41 9 17 17 20 45 16 35 -6 42 1 22 21 -7 7 -17 8 -29 2 -11 -7 -20 -7 -24
0 -4 6 -21 2 -45 -10 -36 -18 -70 -18 -70 0 0 15 38 40 53 34 8 -3 28 2 44 10
34 19 67 13 105 -19z m-620 -42 c23 -21 23 -50 1 -56 -10 -3 -78 -4 -152 -3
-96 1 -135 4 -138 13 -4 10 -10 9 -26 -1 -15 -10 -29 -11 -45 -5 -40 15 -20
34 31 31 26 -2 52 0 59 5 18 11 133 30 197 32 38 1 60 -4 73 -16z m302 -12 c8
-13 -100 -72 -119 -65 -24 10 -19 53 8 58 12 3 31 7 42 9 36 8 64 7 69 -2z
m1479 -63 c31 -22 34 -50 13 -100 -8 -18 -31 -73 -52 -123 -43 -104 -83 -167
-102 -160 -8 3 -21 5 -30 5 -10 0 -29 11 -44 25 l-28 25 21 53 c27 65 84 238
99 295 l11 42 42 -21 c23 -12 54 -30 70 -41z m-1173 4 c0 -10 -22 -32 -32 -32
-11 0 -6 23 7 32 13 10 25 10 25 0z m8 -57 c-6 -14 -13 -23 -15 -21 -5 5 15
46 22 46 3 0 -1 -11 -7 -25z m1349 -97 c-3 -8 -6 -5 -6 6 -1 11 2 17 5 13 3
-3 4 -12 1 -19z m-1300 -40 c-3 -8 -6 -5 -6 6 -1 11 2 17 5 13 3 -3 4 -12 1
-19z m1300 -100 c-3 -8 -6 -5 -6 6 -1 11 2 17 5 13 3 -3 4 -12 1 -19z m-458
-55 c-26 -44 -39 -60 -39 -49 0 15 44 86 53 86 5 0 -1 -17 -14 -37z m-679 -20
c0 -16 -4 -35 -10 -43 -8 -12 -10 -12 -16 3 -8 21 3 67 16 67 6 0 10 -12 10
-27z m1420 -143 c0 -5 -11 -10 -25 -10 -14 0 -25 5 -25 10 0 6 11 10 25 10 14
0 25 -4 25 -10z m-540 -70 c0 -5 -5 -10 -11 -10 -5 0 -7 5 -4 10 3 6 8 10 11
10 2 0 4 -4 4 -10z"/>
<path d="M1723 2014 c-24 -13 -45 -19 -48 -13 -8 12 -85 12 -105 -1 -22 -14
-2 -18 135 -24 96 -4 124 -3 139 9 11 8 18 16 15 18 -53 43 -76 45 -136 11z"/>
<path d="M860 1995 c-10 -12 -9 -16 5 -21 19 -8 40 9 31 25 -10 15 -21 14 -36
-4z"/>
<path d="M980 2000 c-13 -9 -13 -12 4 -25 23 -18 62 1 44 22 -13 15 -28 16
-48 3z"/>
<path d="M1091 1997 c-15 -19 -4 -27 39 -27 20 0 40 3 43 7 12 12 -15 33 -43
33 -15 0 -33 -6 -39 -13z"/>
<path d="M1250 1990 c0 -5 18 -10 41 -10 24 0 38 4 34 10 -3 6 -22 10 -41 10
-19 0 -34 -4 -34 -10z"/>
<path d="M1400 1990 c0 -5 23 -10 50 -10 28 0 50 5 50 10 0 6 -22 10 -50 10
-27 0 -50 -4 -50 -10z"/>
<path d="M987 1893 c-4 -3 -7 -9 -7 -13 0 -11 175 -11 202 -1 21 7 19 9 -19
15 -22 4 -56 3 -75 -2 -18 -5 -42 -5 -53 -1 -26 10 -40 11 -48 2z"/>
<path d="M1382 1794 c-27 -18 -28 -32 -4 -50 21 -17 56 -18 85 -3 32 17 38 31
20 51 -20 22 -71 23 -101 2z"/>
<path d="M937 1789 c-24 -14 -5 -39 30 -39 27 0 43 28 22 41 -18 11 -30 11
-52 -2z"/>
<path d="M800 1780 c0 -5 9 -10 20 -10 11 0 20 5 20 10 0 6 -9 10 -20 10 -11
0 -20 -4 -20 -10z"/>
<path d="M1070 1780 c-20 -12 -6 -23 30 -23 28 0 49 8 39 17 -12 10 -56 14
-69 6z"/>
<path d="M1252 1782 c-20 -2 -32 -8 -29 -15 5 -15 79 -16 84 -1 5 15 -14 20
-55 16z"/>
<path d="M2532 1680 c0 -14 2 -19 5 -12 2 6 2 18 0 25 -3 6 -5 1 -5 -13z"/>
<path d="M2642 1685 c0 -16 2 -22 5 -12 2 9 2 23 0 30 -3 6 -5 -1 -5 -18z"/>
<path d="M2820 1629 c-39 -122 -40 -131 -23 -136 6 -2 18 18 28 46 17 51 31
61 52 40 7 -7 18 -9 26 -6 17 6 41 88 33 114 -6 18 -54 53 -73 53 -4 0 -24
-50 -43 -111z m88 11 c-10 -29 -31 -39 -42 -21 -3 5 -1 23 5 40 9 26 14 29 29
21 16 -9 17 -15 8 -40z"/>
<path d="M2877 1648 c-4 -12 -4 -24 -1 -27 6 -7 24 20 24 37 0 21 -17 13 -23
-10z"/>
<path d="M2315 770 c3 -5 8 -10 11 -10 2 0 4 5 4 10 0 6 -5 10 -11 10 -5 0 -7
-4 -4 -10z"/>
<path d="M4040 3264 c-35 -19 -71 -34 -78 -34 -17 0 -11 -21 9 -30 51 -25 79
-28 113 -11 33 15 35 19 36 64 0 26 -3 46 -7 46 -5 -1 -37 -17 -73 -35z"/>
<path d="M4100 3140 c0 -5 5 -10 10 -10 6 0 10 5 10 10 0 6 -4 10 -10 10 -5 0
-10 -4 -10 -10z"/>
<path d="M4096 3081 c-11 -11 -25 -21 -33 -21 -22 0 -26 -26 -8 -54 12 -18 15
-35 10 -57 -7 -29 -6 -31 16 -24 38 11 40 18 37 100 -3 77 -3 77 -22 56z"/>
<path d="M2642 2984 c-14 -10 -22 -25 -22 -44 0 -26 2 -28 23 -21 15 6 24 19
28 45 7 40 3 43 -29 20z"/>
<path d="M2724 2975 c-4 -8 -4 -25 -1 -37 4 -12 2 -27 -2 -32 -5 -6 -12 -21
-16 -34 -6 -21 -5 -22 13 -11 23 15 33 50 20 73 -6 10 -5 16 2 16 5 0 10 9 10
20 0 23 -18 27 -26 5z"/>
<path d="M2762 2920 c0 -14 2 -19 5 -12 2 6 2 18 0 25 -3 6 -5 1 -5 -13z"/>
<path d="M2425 2810 c-3 -5 1 -10 9 -10 9 0 16 5 16 10 0 6 -4 10 -9 10 -6 0
-13 -4 -16 -10z"/>
<path d="M3483 2494 c-8 -20 8 -36 26 -25 15 10 8 41 -9 41 -6 0 -13 -7 -17
-16z"/>
<path d="M1302 2470 c-43 -10 -46 -14 -30 -39 17 -28 68 -28 92 1 18 21 18 22
0 35 -10 7 -20 13 -23 12 -3 -1 -21 -5 -39 -9z"/>
<path d="M1906 2461 c-6 -10 33 -23 46 -15 4 3 8 9 8 15 0 12 -47 12 -54 0z"/>
<path d="M920 2435 c-16 -19 -5 -65 16 -65 15 0 64 46 64 60 0 8 -35 20 -56
20 -6 0 -17 -7 -24 -15z"/>
<path d="M1028 2356 c-10 -7 -18 -24 -18 -37 1 -22 2 -23 14 -6 12 15 15 16
26 2 15 -18 81 -17 87 1 3 9 -69 54 -85 54 -4 0 -15 -7 -24 -14z"/>
<path d="M1434 2354 c-4 -10 -9 -22 -11 -26 -2 -5 2 -8 10 -8 19 0 31 30 18
43 -7 7 -13 4 -17 -9z"/>
<path d="M1940 2362 c0 -19 43 -52 66 -52 33 0 27 19 -12 41 -32 19 -54 24
-54 11z"/>
<path d="M1272 2339 c-47 -14 -34 -33 24 -37 72 -5 116 5 112 26 -4 20 -83 27
-136 11z"/>
<path d="M1843 2333 c-18 -6 -16 -23 1 -23 17 0 30 16 19 23 -5 2 -14 2 -20 0z"/>
<path d="M1895 2330 c-3 -5 1 -10 9 -10 9 0 16 5 16 10 0 6 -4 10 -9 10 -6 0
-13 -4 -16 -10z"/>
<path d="M1745 2228 c-11 -6 -51 -12 -89 -12 -50 -1 -71 -5 -74 -15 -4 -11 7
-13 58 -8 45 4 75 1 101 -10 34 -13 41 -13 74 3 30 14 34 19 23 30 -19 20 -70
26 -93 12z"/>
<path d="M1403 2218 c-31 -15 -29 -22 10 -36 44 -16 58 -15 85 4 18 13 21 19
11 30 -13 16 -74 17 -106 2z"/>
<path d="M1897 2216 c-18 -14 -18 -14 0 -19 39 -11 236 -2 240 10 7 20 -44 26
-93 13 -34 -10 -48 -10 -57 -1 -15 15 -68 13 -90 -3z"/>
<path d="M1130 2201 c0 -6 5 -13 11 -16 15 -10 61 4 54 15 -8 13 -65 13 -65 1z"/>
<path d="M1280 2200 c0 -5 11 -10 24 -10 14 0 28 5 31 10 4 6 -7 10 -24 10
-17 0 -31 -4 -31 -10z"/>
<path d="M2228 2203 c6 -2 18 -2 25 0 6 3 1 5 -13 5 -14 0 -19 -2 -12 -5z"/>
<path d="M1208 1208 c-16 -5 -28 -13 -28 -17 0 -5 -27 -18 -60 -30 -39 -14
-66 -32 -80 -51 l-21 -29 24 -6 c16 -4 38 3 74 27 28 18 82 52 119 75 68 42
68 42 34 42 -19 0 -47 -5 -62 -11z"/>
</g>
</svg>
